<svg width="484" height="533" viewBox="0 0 484 533" fill="none" xmlns="http://www.w3.org/2000/svg">
<g clip-path="url(#clip0)">
<path d="M236.829 346.259C220.983 350.152 204.339 349.26 189 343.694C173.662 338.128 160.319 328.139 150.658 314.989C140.996 301.84 135.452 286.121 134.724 269.82C133.997 253.52 138.119 237.369 146.57 223.411C155.022 209.454 167.422 198.316 182.204 191.405C196.985 184.495 213.484 182.124 229.613 184.59C245.743 187.057 260.779 194.251 272.819 205.263C284.86 216.275 293.365 230.61 297.259 246.455C299.966 256.98 300.545 267.94 298.96 278.691C297.376 289.442 293.66 299.769 288.031 309.065C282.402 318.361 274.974 326.44 266.181 332.826C257.389 339.213 247.41 343.78 236.829 346.259ZM204.018 212.731C196.92 214.305 190.215 217.301 184.308 221.538C178.401 225.776 173.414 231.166 169.649 237.385C165.883 243.604 163.418 250.521 162.4 257.72C161.383 264.918 161.836 272.248 163.731 279.266C165.305 286.364 168.301 293.069 172.538 298.976C176.776 304.883 182.166 309.87 188.385 313.635C194.604 317.401 201.521 319.866 208.72 320.884C215.918 321.901 223.248 321.448 230.266 319.553C237.364 317.979 244.069 314.983 249.976 310.746C255.883 306.509 260.87 301.118 264.635 294.899C268.401 288.68 270.866 281.763 271.884 274.564C272.901 267.366 272.448 260.036 270.553 253.018C268.98 245.92 265.983 239.215 261.746 233.308C257.509 227.401 252.118 222.414 245.899 218.649C239.68 214.883 232.763 212.418 225.564 211.4C218.366 210.383 211.036 210.836 204.018 212.731Z" fill="#2F2E41"/>
<path d="M378.54 156.311L333.615 109.468C329.215 104.874 323.357 101.949 317.041 101.192C310.725 100.436 304.342 101.895 298.982 105.32L269.181 124.295C262.654 121.9 255.97 119.957 249.176 118.478L234.194 86.4932C231.495 80.7344 226.884 76.089 221.145 73.3479C215.407 70.6067 208.895 69.9394 202.72 71.4594L139.695 86.9461C133.518 88.4613 128.058 92.0704 124.243 97.1591C120.428 102.248 118.495 108.501 118.773 114.855L120.321 150.141C114.91 154.584 109.815 159.399 105.073 164.55L70.075 161.567C63.7429 161.023 57.4179 162.69 52.1775 166.286C46.9371 169.882 43.1055 175.183 41.3355 181.287L23.236 243.617C21.4624 249.721 21.8578 256.25 24.3549 262.095C26.8521 267.94 31.2969 272.739 36.9333 275.677L68.2855 292.001C68.8853 295.422 69.4252 298.829 70.2619 302.234C71.1084 305.679 72.0786 309.051 73.1491 312.37L53.0502 341.209C49.412 346.422 47.6923 352.735 48.1836 359.073C48.6748 365.411 51.3468 371.383 55.7448 375.973L100.67 422.816C105.069 427.413 110.926 430.341 117.243 431.1C123.56 431.859 129.944 430.402 135.307 426.977L165.104 407.989C171.631 410.391 178.317 412.339 185.113 413.819L200.091 445.79C202.79 451.549 207.401 456.195 213.14 458.936C218.878 461.677 225.39 462.344 231.565 460.824L289.783 446.519L283.221 419.813L225.003 434.119L203.875 389.046C189.563 387.397 175.643 383.287 162.731 376.898L120.53 403.777L75.6041 356.934L104.132 316.013C98.2497 302.817 94.7437 288.685 93.7755 274.269L49.6441 251.287L67.7436 188.957L117.31 193.202C125.864 181.525 136.394 171.434 148.424 163.384L146.257 113.652L209.282 98.165L230.41 143.238C244.722 144.888 258.641 148.998 271.554 155.386L313.755 128.507L358.681 175.349L329.365 217.271L351.899 233.029L381.235 191.074C384.873 185.861 386.593 179.549 386.102 173.211C385.61 166.873 382.938 160.901 378.54 156.311Z" fill="#222F65"/>
<path d="M344.013 379.106L300.931 353.02L286.73 376.474L353.266 416.761L423.768 300.324L400.314 286.123L344.013 379.106Z" fill="#2F2E41"/>
</g>
<defs>
<clipPath id="clip0">
<rect width="440" height="440" fill="white" transform="translate(-49 104.995) rotate(-13.8054)"/>
</clipPath>
</defs>
</svg>
